<svg width="35" height="35" viewBox="0 0 35 35" fill="none" xmlns="http://www.w3.org/2000/svg">
<path d="M24.7083 21.8333H23.1942L22.6575 21.3158C24.6008 19.0619 25.6688 16.1843 25.6667 13.2083C25.6667 10.7443 24.936 8.33562 23.5671 6.28686C22.1981 4.2381 20.2524 2.64128 17.9759 1.69834C15.6995 0.755398 13.1945 0.508681 10.7778 0.989389C8.36116 1.4701 6.1413 2.65664 4.39897 4.39897C2.65664 6.1413 1.4701 8.36116 0.989389 10.7778C0.508681 13.1945 0.755398 15.6995 1.69834 17.9759C2.64128 20.2524 4.2381 22.1981 6.28686 23.5671C8.33562 24.936 10.7443 25.6667 13.2083 25.6667C16.2942 25.6667 19.1308 24.5358 21.3158 22.6575L21.8333 23.1942V24.7083L31.4167 34.2725L34.2725 31.4167L24.7083 21.8333ZM13.2083 21.8333C8.43584 21.8333 4.58334 17.9808 4.58334 13.2083C4.58334 8.43584 8.43584 4.58334 13.2083 4.58334C17.9808 4.58334 21.8333 8.43584 21.8333 13.2083C21.8333 17.9808 17.9808 21.8333 13.2083 21.8333Z" fill="white" fill-opacity="0.6"/>
</svg>
